<svg width="174" height="72" viewBox="0 0 174 72" fill="none" xmlns="http://www.w3.org/2000/svg">
<path d="M31.6699 43.2703C54.5738 32.1005 78.755 39.8707 87 70C95.8958 41.6385 115.309 31.8488 142.745 43.2703C139.165 32.2134 158.025 29.2128 173 51.5586C159.817 24.5762 148.719 13.5671 122.436 1C121.533 13.1268 113.979 14.9572 96.947 15.7117C94.9091 12.2287 94.4232 10.0206 93.8386 5.97297L91.1446 10.5315H83.0627L80.1614 5.97297C79.9188 9.96592 79.6159 12.1654 77.4675 15.7117C56.4124 14.8897 53.2191 10.5533 51.5639 1C23.9944 14.9025 13.637 26.4866 1 51.5586C13.343 32.7107 34.064 29.1951 31.6699 43.2703Z" fill="black" stroke="black"/>
</svg>
